<?xml version="1.0" standalone="no"?><svg xmlns="http://www.w3.org/2000/svg" viewBox="0 0 1440 320"><path fill="#212336" fill-opacity="1" d="M0,192L12,165.3C24,139,48,85,72,69.3C96,53,120,75,144,90.7C168,107,192,117,216,112C240,107,264,85,288,74.7C312,64,336,64,360,64C384,64,408,64,432,80C456,96,480,128,504,165.3C528,203,552,245,576,224C600,203,624,117,648,101.3C672,85,696,139,720,144C744,149,768,107,792,101.3C816,96,840,128,864,122.7C888,117,912,75,936,58.7C960,43,984,53,1008,96C1032,139,1056,213,1080,234.7C1104,256,1128,224,1152,208C1176,192,1200,192,1224,213.3C1248,235,1272,277,1296,293.3C1320,309,1344,299,1368,288C1392,277,1416,267,1428,261.3L1440,256L1440,320L1428,320C1416,320,1392,320,1368,320C1344,320,1320,320,1296,320C1272,320,1248,320,1224,320C1200,320,1176,320,1152,320C1128,320,1104,320,1080,320C1056,320,1032,320,1008,320C984,320,960,320,936,320C912,320,888,320,864,320C840,320,816,320,792,320C768,320,744,320,720,320C696,320,672,320,648,320C624,320,600,320,576,320C552,320,528,320,504,320C480,320,456,320,432,320C408,320,384,320,360,320C336,320,312,320,288,320C264,320,240,320,216,320C192,320,168,320,144,320C120,320,96,320,72,320C48,320,24,320,12,320L0,320Z"></path></svg>