<?xml version="1.0" standalone="no"?><svg xmlns="http://www.w3.org/2000/svg" viewBox="0 0 1440 320"><path fill="#fff" fill-opacity="1" d="M0,32L10,37.3C20,43,40,53,60,48C80,43,100,21,120,53.3C140,85,160,171,180,202.7C200,235,220,213,240,176C260,139,280,85,300,80C320,75,340,117,360,160C380,203,400,245,420,261.3C440,277,460,267,480,256C500,245,520,235,540,218.7C560,203,580,181,600,170.7C620,160,640,160,660,138.7C680,117,700,75,720,80C740,85,760,139,780,149.3C800,160,820,128,840,138.7C860,149,880,203,900,234.7C920,267,940,277,960,240C980,203,1000,117,1020,74.7C1040,32,1060,32,1080,48C1100,64,1120,96,1140,90.7C1160,85,1180,43,1200,53.3C1220,64,1240,128,1260,165.3C1280,203,1300,213,1320,213.3C1340,213,1360,203,1380,213.3C1400,224,1420,256,1430,272L1440,288L1440,320L1430,320C1420,320,1400,320,1380,320C1360,320,1340,320,1320,320C1300,320,1280,320,1260,320C1240,320,1220,320,1200,320C1180,320,1160,320,1140,320C1120,320,1100,320,1080,320C1060,320,1040,320,1020,320C1000,320,980,320,960,320C940,320,920,320,900,320C880,320,860,320,840,320C820,320,800,320,780,320C760,320,740,320,720,320C700,320,680,320,660,320C640,320,620,320,600,320C580,320,560,320,540,320C520,320,500,320,480,320C460,320,440,320,420,320C400,320,380,320,360,320C340,320,320,320,300,320C280,320,260,320,240,320C220,320,200,320,180,320C160,320,140,320,120,320C100,320,80,320,60,320C40,320,20,320,10,320L0,320Z"></path></svg>