<?xml version="1.0" standalone="no"?><svg xmlns="http://www.w3.org/2000/svg" viewBox="0 0 1440 320"><path fill="#ffffff" fill-opacity="1" d="M0,32L10,37.3C20,43,40,53,60,48C80,43,100,21,120,53.3C140,85,160,171,180,202.7C200,235,220,213,240,176C260,139,280,85,300,80C320,75,340,117,360,160C380,203,400,245,420,261.3C440,277,460,267,480,256C500,245,520,235,540,218.7C560,203,580,181,600,170.7C620,160,640,160,660,138.7C680,117,700,75,720,80C740,85,760,139,780,149.3C800,160,820,128,840,138.7C860,149,880,203,900,234.7C920,267,940,277,960,240C980,203,1000,117,1020,74.7C1040,32,1060,32,1080,48C1100,64,1120,96,1140,90.7C1160,85,1180,43,1200,53.3C1220,64,1240,128,1260,165.3C1280,203,1300,213,1320,213.3C1340,213,1360,203,1380,213.3C1400,224,1420,256,1430,272L1440,288L1440,0L1430,0C1420,0,1400,0,1380,0C1360,0,1340,0,1320,0C1300,0,1280,0,1260,0C1240,0,1220,0,1200,0C1180,0,1160,0,1140,0C1120,0,1100,0,1080,0C1060,0,1040,0,1020,0C1000,0,980,0,960,0C940,0,920,0,900,0C880,0,860,0,840,0C820,0,800,0,780,0C760,0,740,0,720,0C700,0,680,0,660,0C640,0,620,0,600,0C580,0,560,0,540,0C520,0,500,0,480,0C460,0,440,0,420,0C400,0,380,0,360,0C340,0,320,0,300,0C280,0,260,0,240,0C220,0,200,0,180,0C160,0,140,0,120,0C100,0,80,0,60,0C40,0,20,0,10,0L0,0Z"></path></svg>